<?xml version="1.0"?>
<svg xmlns="http://www.w3.org/2000/svg" width="512" height="512" viewBox="0 0 128 128"><g><path d="M121.5,29.1H109.25V26.509H121.5a1.75,1.75,0,0,0,0-3.5H109.25V15.346a1.75,1.75,0,0,0-3.5,0v7.663H93.5a1.75,1.75,0,0,0,0,3.5h12.25V29.1H93.5a1.75,1.75,0,0,0,0,3.5h12.25V97.894l-10.473,13.7a1.75,1.75,0,0,0,2.781,2.126l7.692-10.06v4a1.75,1.75,0,0,0,3.5,0v-4l7.692,10.06a1.75,1.75,0,0,0,2.781-2.126l-10.473-13.7V32.6H121.5a1.75,1.75,0,0,0,0-3.5Z"/><path d="M22.25,97.894V32.6H34.5a1.75,1.75,0,0,0,0-3.5H22.25V26.509H34.5a1.75,1.75,0,0,0,0-3.5H22.25V15.346a1.75,1.75,0,0,0-3.5,0v7.663H6.5a1.75,1.75,0,0,0,0,3.5H18.75V29.1H6.5a1.75,1.75,0,0,0,0,3.5H18.75V97.894l-10.473,13.7a1.75,1.75,0,0,0,2.781,2.126l7.692-10.06v4a1.75,1.75,0,0,0,3.5,0v-4l7.692,10.06a1.75,1.75,0,0,0,2.781-2.126Z"/><path d="M88.461,84.67H101.83a1.75,1.75,0,0,0,1.75-1.75V68.245c0-.01,0-.019,0-.029s0-.019,0-.029V62.22a1.75,1.75,0,0,0-1.75-1.75H74.75a1.736,1.736,0,0,0-1.049.357,24.247,24.247,0,0,0-4.071-1.346V51.65h2.412v4.812a1.75,1.75,0,0,0,1.75,1.75h23.75a1.75,1.75,0,0,0,1.75-1.75v-17.5a1.75,1.75,0,0,0-1.75-1.75H73.792a1.75,1.75,0,0,0-1.75,1.75V48.15H67.88a1.75,1.75,0,0,0-1.75,1.75v9.019c-.7-.061-1.412-.1-2.13-.1s-1.427.038-2.13.1V49.9a1.75,1.75,0,0,0-1.75-1.75H55.958V38.962a1.75,1.75,0,0,0-1.75-1.75H30.458a1.75,1.75,0,0,0-1.75,1.75v17.5a1.75,1.75,0,0,0,1.75,1.75h23.75a1.75,1.75,0,0,0,1.75-1.75V51.65H58.37v7.831A24.247,24.247,0,0,0,54.3,60.827a1.736,1.736,0,0,0-1.049-.357H26.17a1.75,1.75,0,0,0-1.75,1.75v5.967c0,.01,0,.019,0,.029s0,.019,0,.029V82.92a1.75,1.75,0,0,0,1.75,1.75H39.539a24.519,24.519,0,0,0,11.766,19.6L47.67,111.9a1.75,1.75,0,1,0,3.16,1.5l3.589-7.534a24.489,24.489,0,0,0,19.162,0L77.17,113.4a1.75,1.75,0,1,0,3.16-1.5l-3.635-7.629A24.519,24.519,0,0,0,88.461,84.67ZM75.542,54.712v-8h20.25v8Zm20.25-14v2.5H75.542v-2.5Zm-43.334,0v2.5H32.208v-2.5Zm-20.25,14v-8h20.25v8ZM88.4,81.17a24.341,24.341,0,0,0-3.875-11.2H100.08v11.2Zm11.68-17.2v2.5H81.757A24.8,24.8,0,0,0,79,63.97ZM49,63.97a24.8,24.8,0,0,0-2.756,2.5H27.92v-2.5Zm-21.079,6H43.475A24.341,24.341,0,0,0,39.6,81.17H27.92ZM64,104.32a21,21,0,1,1,21-21A21.024,21.024,0,0,1,64,104.32Z"/><path d="M81.667,77.824a18.386,18.386,0,0,0-3.489-6.377A1.75,1.75,0,1,0,75.5,73.7a14.914,14.914,0,0,1,2.829,5.17A1.751,1.751,0,0,0,80,80.1a1.783,1.783,0,0,0,.522-.079A1.752,1.752,0,0,0,81.667,77.824Z"/><path d="M64,70.82a12.5,12.5,0,1,0,12.5,12.5A12.514,12.514,0,0,0,64,70.82Zm0,21.5a9,9,0,1,1,9-9A9.01,9.01,0,0,1,64,92.32Z"/></g></svg>
